#!OML:ASF F:\VICON\USERDATA\INSTALL\rory3\rory3.ASF
:FULLY-SPECIFIED
:DEGREES
474
root 2.86173 17.6958 24.4133 -2.12276 -9.84944 -5.78432
lowerback 17.3945 0.678181 3.19979
upperback 1.29767 1.90479 4.53621
thorax -8.4311 0.881163 2.6222
lowerneck -9.65269 -0.275975 -2.52701
upperneck 27.2159 1.30044 -4.47504
head 10.2967 -0.182252 -1.00558
rclavicle -3.57812e-015 1.35174e-014
rhumerus -69.5371 -44.8602 -24.1093
rradius 74.6794
rwrist -59.1907
rhand 1.24856 -3.93414
rfingers 7.12502
rthumb 26.7857 -32.0575
lclavicle -3.57812e-015 1.35174e-014
lhumerus -62.8888 21.2564 58.0797
lradius 29.8881
lwrist 6.36387
lhand -10.2477 53.26
lfingers 7.12502
lthumb 15.7451 82.6395
rfemur 15.7187 5.75359 31.9656
rtibia 27.6153
rfoot -12.9559 -7.15266
rtoes -5.7314
lfemur -28.4803 -3.96258 -12.192
ltibia 23.7035
lfoot -4.65423 9.83833
ltoes -15.1019
475
root 2.87071 17.6993 24.669 -2.28324 -9.63039 -5.44195
lowerback 16.9472 0.573702 2.90963
upperback 1.4151 1.66612 4.40492
thorax -8.05165 0.777025 2.70048
lowerneck -9.7442 -0.211972 -2.36695
upperneck 27.6187 1.41872 -4.61641
head 10.467 -0.139368 -1.07598
rclavicle -2.18663e-014 -3.65764e-014
rhumerus -68.7771 -41.5945 -26.268
rradius 77.7643
rwrist -61.6276
rhand -0.63915 -2.84355
rfingers 7.12502
rthumb 24.978 -31.2308
lclavicle -2.18663e-014 -3.65764e-014
lhumerus -63.2252 21.4035 57.7165
lradius 29.9111
lwrist 6.2854
lhand -10.1521 53.2596
lfingers 7.12502
lthumb 15.8372 82.6318
rfemur 15.5714 5.41466 31.3361
rtibia 29.3804
rfoot -11.4334 -6.57939
rtoes -6.69905
lfemur -28.6209 -3.89665 -12.9267
ltibia 25.043
lfoot -1.97865 8.1708
ltoes -18.1592
476
root 2.87804 17.7092 24.9144 -2.49037 -9.42112 -5.14098
lowerback 16.8482 0.498744 2.6806
upperback 1.49402 1.50027 4.23743
thorax -7.90647 0.702666 2.68697
lowerneck -10.1484 -0.0769246 -1.83341
upperneck 27.943 1.61636 -4.92246
head 10.6748 -0.0421967 -1.26072
rclavicle 3.01159e-014 7.95139e-014
rhumerus -70.214 -42.7098 -23.8996
rradius 78.6841
rwrist -60.5196
rhand 1.97476 -2.78766
rfingers 7.12502
rthumb 27.4805 -30.8027
lclavicle 3.01159e-014 7.95139e-014
lhumerus -63.2412 21.4495 57.5145
lradius 29.7437
lwrist 5.92148
lhand -10.3474 51.5063
lfingers 7.12502
lthumb 15.6491 80.8934
rfemur 15.0954 5.06681 30.7308
rtibia 31.5763
rfoot -9.25679 -5.89978
rtoes -5.01181
lfemur -28.7469 -4.58471 -13.3143
ltibia 26.2389
lfoot -0.221643 6.94596
ltoes -20.8497
477
root 2.86829 17.7092 25.1586 -3.06815 -9.68866 -5.17322
lowerback 17.9157 0.565731 2.42459
upperback 1.19937 1.61392 4.24604
thorax -8.83202 0.763871 2.82082
lowerneck -9.54885 0.0605718 -1.60707
upperneck 28.1405 1.80322 -5.12096
head 10.6365 0.046622 -1.35089
rclavicle 1.799e-014 -1.90833e-014
rhumerus -70.8974 -40.9128 -23.5541
rradius 80.9742
rwrist -61.8272
rhand 2.17417 -2.80847
rfingers 7.12502
rthumb 27.6712 -30.793
lclavicle 1.799e-014 -1.90833e-014
lhumerus -63.7939 20.7082 57.9117
lradius 30.1866
lwrist 5.65108
lhand -10.3646 52.4901
lfingers 7.12502
lthumb 15.6326 81.8785
rfemur 14.7394 5.34557 30.8269
rtibia 34.1468
rfoot -6.47046 -5.58796
rtoes -2.50202
lfemur -28.2209 -5.17398 -13.1702
ltibia 27.3861
lfoot 0.392208 5.94412
ltoes -19.5713
478
root 2.87466 17.7037 25.4029 -3.33072 -9.24924 -4.70003
lowerback 17.6762 0.47023 2.16995
upperback 1.44435 1.38895 3.98709
thorax -8.42082 0.66076 2.7355
lowerneck -9.57137 0.0340938 -1.51559
upperneck 27.9989 1.73469 -5.09771
head 10.5858 0.0308988 -1.36392
rclavicle 5.96354e-015 -2.3059e-014
rhumerus -71.2783 -40.6362 -23.2343
rradius 83.0013
rwrist -62.5047
rhand 1.62264 -3.03735
rfingers 7.12502
rthumb 27.1436 -31.1054
lclavicle 5.96354e-015 -2.3059e-014
lhumerus -63.4686 20.9702 57.4685
lradius 30.0934
lwrist 6.05274
lhand -10.314 53.0543
lfingers 7.12502
lthumb 15.6812 82.4389
rfemur 13.6818 4.82695 30.0171
rtibia 37.0086
rfoot -3.2734 -5.16262
rtoes 1.42825
lfemur -28.0493 -5.60776 -13.9455
ltibia 28.522
lfoot 0.777734 4.57255
ltoes -13.7099
479
root 2.87683 17.6993 25.6424 -3.63986 -8.7812 -4.14127
lowerback 17.727 0.383221 1.78196
upperback 1.59335 1.16839 3.70313
thorax -8.27899 0.563091 2.70036
lowerneck -9.90266 -0.0284441 -1.48893
upperneck 28.199 1.61898 -4.93965
head 10.7218 -0.00984229 -1.32961
rclavicle 5.36719e-015 -1.03368e-014
rhumerus -72.3278 -41.6779 -21.5022
rradius 84.4102
rwrist -61.5567
rhand 1.08959 -3.34277
rfingers 7.12502
rthumb 26.6336 -31.4894
lclavicle 5.36719e-015 -1.03368e-014
lhumerus -62.993 20.9735 57.4363
lradius 29.993
lwrist 5.76976
lhand -10.4244 52.2487
lfingers 7.12502
lthumb 15.575 81.6415
rfemur 12.4535 4.20451 29.0777
rtibia 39.9871
rfoot 0.469659 -5.04414
rtoes 5.77621
lfemur -27.7708 -5.67428 -14.9435
ltibia 29.784
lfoot 1.18814 3.76004
ltoes -8.40199
480
root 2.8761 17.6937 25.8721 -3.96396 -8.3175 -3.44501
lowerback 17.8991 0.263752 1.10933
upperback 1.78761 0.855048 3.45425
thorax -8.15563 0.430135 2.88949
lowerneck -10.3865 0.0254891 -1.50883
upperneck 28.2717 1.68863 -4.81972
head 10.8459 0.0255801 -1.27706
rclavicle 7.45443e-015 1.66979e-014
rhumerus -72.3138 -41.5893 -21.4914
rradius 86.7105
rwrist -60.9795
rhand 0.74029 -4.3646
rfingers 7.12502
rthumb 26.2992 -32.5615
lclavicle 7.45443e-015 1.66979e-014
lhumerus -62.3248 21.0292 57.8916
lradius 30.1297
lwrist 5.26983
lhand -10.4524 51.8232
lfingers 7.12502
lthumb 15.548 81.2182
rfemur 11.1153 3.53316 27.924
rtibia 42.937
rfoot 4.3647 -4.93283
rtoes 8.20433
lfemur -27.3894 -5.5877 -16.1618
ltibia 31.0751
lfoot 1.46108 3.72585
ltoes -6.11296
